# xmcd
#
# Track frame offsets: 
#        150
#        17652
#        34023
#        50187
#        74126
#        89707
#        104816
#        125833
#        141272
#        161669
#        183219
#        201886
#        225562
#        242693
#        265206
#        287728
#        306115
#        332656
#
# Disc length: 4674 seconds
#
# Revision: 0
# Processed by: cddbd v1.5.2PL0 Copyright (c) Steve Scherf et al.
# Submitted via: ExactAudioCopyFreeDBPlugin 1.0
#
DISCID=19124012
DTITLE=Various Artist - Ultimate Soul
DYEAR=2019
DGENRE=No, thanks.
TTITLE0=Luther Vandross - Never Too Much
TTITLE1=Evelyn 'Champagne' King - Love Come Down
TTITLE2=McFadden and Whitehead - Ain't No Stoppin' Us Now
TTITLE3=Bobby Womack - How Could You Break My Heart
TTITLE4=Dionne Warwick - All The Love In The World
TTITLE5=Champaign - How 'bout Us
TTITLE6=Nina Simone - Baltimore
TTITLE7=The Pointer Sisters - Fire
TTITLE8=The Jones Girls - You Gonna Make Me Love Somebody Else
TTITLE9=Cheryl Lynn - All My Lovin'
TTITLE10=Tyrone Davis - In The Mood
TTITLE11=Keni Burke - Risin' To The Top
TTITLE12=George Duke and Stanley Clarke - Sweet Baby
TTITLE13=Teddy Pendergrass - Love T.K.O.
TTITLE14=Patti LaBelle - Love, Need And Want You
TTITLE15=Gregory Abbott - Shake You Down
TTITLE16=Mtume - Juicy Fruit
TTITLE17=Marvin Gaye - Sexual Healing
EXTD=
EXTT0=
EXTT1=
EXTT2=
EXTT3=
EXTT4=
EXTT5=
EXTT6=
EXTT7=
EXTT8=
EXTT9=
EXTT10=
EXTT11=
EXTT12=
EXTT13=
EXTT14=
EXTT15=
EXTT16=
EXTT17=
PLAYORDER=
